HIERARCHY
ROOT Hips
{
  OFFSET 57.8838 95.319 338.509
  CHANNELS 6 Xposition Yposition Zposition Zrotation Xrotation Yrotation
  JOINT LeftUpLeg
  {
    OFFSET 8.64259 1.95398 -2.38835
    CHANNELS 3 Zrotation Xrotation Yrotation
    JOINT LeftLeg
    {
      OFFSET 43.7702 0 0
      CHANNELS 3 Zrotation Xrotation Yrotation
      JOINT LeftFoot
      {
        OFFSET 40.6238 0 0
        CHANNELS 3 Zrotation Xrotation Yrotation
        JOINT LeftToeBase
        {
          OFFSET 12.7242 0 0
          CHANNELS 3 Zrotation Xrotation Yrotation
          End Site
          {
            OFFSET 0 0 0
          }
        }
      }
    }
  }
  JOINT RightUpLeg
  {
    OFFSET -8.2249 1.95398 -2.59336
    CHANNELS 3 Zrotation Xrotation Yrotation
    JOINT RightLeg
    {
      OFFSET 43.5653 0 0
      CHANNELS 3 Zrotation Xrotation Yrotation
      JOINT RightFoot
      {
        OFFSET 40.6238 0 0
        CHANNELS 3 Zrotation Xrotation Yrotation
        JOINT RightToeBase
        {
          OFFSET 12.7242 0 0
          CHANNELS 3 Zrotation Xrotation Yrotation
          End Site
          {
            OFFSET 0 0 0
          }
        }
      }
    }
  }
  JOINT Spine
  {
    OFFSET 0.165834 0.87714 6.61349
    CHANNELS 3 Zrotation Xrotation Yrotation
    JOINT Spine1
    {
      OFFSET 7.38963 1.71661e-005 0
      CHANNELS 3 Zrotation Xrotation Yrotation
      JOINT Spine2
      {
        OFFSET 11.9445 1.14441e-005 0
        CHANNELS 3 Zrotation Xrotation Yrotation
        JOINT Spine3
        {
          OFFSET 14.7254 4.19617e-005 0
          CHANNELS 3 Zrotation Xrotation Yrotation
          JOINT Spine4
          {
            OFFSET 10.9679 0 0
            CHANNELS 3 Zrotation Xrotation Yrotation
            JOINT RightShoulder
            {
              OFFSET 2.46616 -1.6653 3.69651
              CHANNELS 3 Zrotation Xrotation Yrotation
              JOINT RightArm
              {
                OFFSET 13.0012 0 0
                CHANNELS 3 Zrotation Xrotation Yrotation
                JOINT RightForeArm
                {
                  OFFSET 28.7848 1.62311e-005 0
                  CHANNELS 3 Zrotation Xrotation Yrotation
                  JOINT RightHand
                  {
                    OFFSET 26.5688 1.62095e-005 0
                    CHANNELS 3 Zrotation Xrotation Yrotation
                    End Site
                    {
                      OFFSET 0 0 0
                    }
                  }
                }
              }
            }
            JOINT LeftShoulder
            {
              OFFSET 2.38034 -1.29275 -3.7523
              CHANNELS 3 Zrotation Xrotation Yrotation
              JOINT LeftArm
              {
                OFFSET 16.3182 6.07031e-005 0
                CHANNELS 3 Zrotation Xrotation Yrotation
                JOINT LeftForeArm
                {
                  OFFSET 27.0901 0 0
                  CHANNELS 3 Zrotation Xrotation Yrotation
                  JOINT LeftHand
                  {
                    OFFSET 24.5451 1.51738e-005 0
                    CHANNELS 3 Zrotation Xrotation Yrotation
                    End Site
                    {
                      OFFSET 0 0 0
                    }
                  }
                }
              }
            }
            JOINT Neck
            {
              OFFSET 5.0226 -0.0266342 0
              CHANNELS 3 Zrotation Xrotation Yrotation
              JOINT Head
              {
                OFFSET 6.69364 2.86102e-005 0
                CHANNELS 3 Zrotation Xrotation Yrotation
                End Site
                {
                  OFFSET 0 0 0
                }
              }
            }
          }
        }
      }
    }
  }
}
MOTION
Frames:	14
Frame Time:	0.0416667
173.856 97.6609 171.572 -94.4845 24.5991 -86.3882 174.986 1.36966 84.5095 -12.6036 23.344 3.85924 54.7318 1.10709 8.3307 39.6056 4.518 2.72456 169.401 3.25102 91.4146 -20.3639 7.25833 2.66602 69.0159 1.66712 7.84735 25.5775 3.88669 3.42001 -1.94126 6.81764 -90.1734 13.2492 -3.93595 0.14626 1.58417 -3.92573 0.319615 -20.9966 -3.79768 -1.04517 -0.98395 -3.79767 -1.04518 95.6755 -51.0167 -91.9475 32.5398 -12.117 5.39491 5.84887 8.88905 -92.91 -4.13266 -0.404242 7.15032 -79.2657 -55.2849 95.0697 -21.7225 25.2975 -0.635321 -29.4178 -6.67442 -68.949 13.5549 -0.0688069 -7.5259 4.80222 0.865345 -3.40497 -10.1557 0.912339 7.81521 
173.928 97.6373 171.616 -94.2476 24.9118 -86.4265 175.035 1.82322 84.4832 -13.0856 23.2127 3.87714 55.1201 1.74785 9.38993 38.9192 4.18759 1.96504 169.512 3.52493 91.5103 -20.3036 6.77041 2.7093 68.9949 1.26101 7.61246 25.6144 3.87434 3.10443 -1.91432 6.82361 -90.1805 13.2366 -3.88593 0.125155 1.5714 -3.87664 0.296308 -21.0081 -3.74364 -1.05019 -0.995456 -3.74361 -1.0502 95.8838 -50.8571 -91.648 32.6284 -12.3866 4.97608 5.95386 8.94335 -92.7523 -4.37245 -0.427 7.03981 -80.3094 -57.1211 93.6634 -20.9662 38.9939 3.53363 -56.0826 -12.9928 -86.4835 26.9825 -0.475589 -5.15024 5.92254 0.931444 -3.25812 -11.4865 0.904928 7.67021 
174.006 97.7157 171.621 -94.3996 25.347 -86.3405 175.071 1.50659 84.4474 -12.6487 22.8365 3.89182 54.9332 1.74754 9.7964 38.8257 4.12346 1.36963 169.694 3.60751 91.6154 -20.5778 7.77905 2.3964 69.1375 1.82663 8.857 25.1172 4.44111 3.61267 -1.82159 6.83657 -90.1199 13.2116 -3.67291 0.218644 1.54577 -3.65972 0.380294 -21.0295 -3.56861 -0.896779 -1.01684 -3.56859 -0.896775 96.0216 -52.112 -91.29 31.7369 -12.0796 4.87629 6.12627 8.75541 -92.6371 -4.75022 -0.475728 7.29076 -81.5828 -57.246 91.8843 -21.432 40.7817 5.13143 -51.2883 -13.9738 -84.8866 22.111 -1.96858 -12.697 6.19075 0.397472 -4.80731 -12.2274 0.577759 8.30148 
173.961 97.7344 171.546 -95.6668 25.4584 -86.3757 175.193 -0.321003 83.9381 -11.2456 23.2069 3.51176 54.2731 1.56333 9.87699 39.2231 4.30565 1.71838 169.052 2.76546 90.6337 -21.1899 7.20816 2.53617 69.6257 1.67442 9.05623 25.0102 4.55322 3.79377 -1.83136 6.97404 -90.0596 12.9378 -3.66465 0.324881 1.27188 -3.64678 0.486057 -21.3036 -3.59263 -0.79299 -1.29097 -3.59264 -0.792994 96.2283 -50.979 -91.1056 32.7978 -12.2107 4.80457 6.41488 8.71091 -92.6257 -5.22786 -0.514461 6.9671 -81.3349 -57.6104 92.2521 -18.8944 22.4569 0.113312 -22.8699 -4.44716 -66.8764 13.2517 -2.1145 -19.0434 7.37701 0.607436 -2.70862 -13.3845 0.567182 5.85086 
173.885 97.8151 171.467 -96.859 26.1091 -86.4352 174.953 -2.14885 83.1451 -9.58539 22.2958 3.65334 53.8341 1.23061 9.57372 38.6774 4.07104 1.61198 168.72 1.88533 89.7561 -21.3026 6.12826 2.47829 69.6666 1.35175 8.84454 25.2589 4.27949 3.47762 -1.72679 7.0554 -89.934 12.7766 -3.39773 0.536347 1.10992 -3.37081 0.685526 -21.4606 -3.40164 -0.510817 -1.44794 -3.40164 -0.510816 96.9737 -50.3359 -90.0285 33.874 -12.5478 4.33801 6.40347 8.88607 -91.6277 -5.30125 -0.515763 6.81037 -81.7051 -57.1559 91.7087 -19.2493 21.7817 0.0988268 -21.7071 -4.35285 -66.5189 14.1961 -2.38754 -20.003 7.08475 0.253583 -3.28407 -13.2665 0.38158 5.36903 
173.906 97.8662 171.381 -98.3517 26.7918 -86.4776 175.075 -3.38047 82.3184 -9.65861 21.8782 3.51616 54.1168 1.2952 9.74481 38.3985 3.95625 1.67841 168.146 1.22961 88.5783 -22.177 5.06246 2.44321 70.1208 1.08903 9.25347 25.2532 4.2738 3.58998 -1.67251 7.18026 -89.8315 12.5284 -3.24246 0.712058 0.861166 -3.20799 0.854209 -21.7065 -3.30638 -0.296432 -1.69382 -3.30639 -0.296432 96.6243 -50.526 -90.5476 33.5449 -12.1737 4.67929 6.67358 8.67891 -91.8095 -5.66315 -0.547787 6.67405 -81.6844 -57.0993 91.734 -19.6897 21.4732 0.420687 -20.469 -4.20743 -66.527 16.5248 -3.06644 -22.1337 6.23261 0.70025 -2.32007 -12.0239 0.813006 3.70854 
173.889 97.9207 171.285 -99.8162 27.5711 -86.5699 175.126 -4.64612 81.4044 -9.60092 21.2879 3.35169 54.1971 1.03368 9.80289 38.6158 4.05383 1.82857 167.715 0.506171 87.4863 -22.9022 4.12856 2.25072 70.5528 0.731148 9.58926 25.2138 4.33771 3.46308 -1.56429 7.3321 -89.7264 12.2247 -2.9795 0.879078 0.556808 -2.93788 1.00945 -22.0058 -3.1058 -0.0578639 -1.99315 -3.10579 -0.0578689 96.961 -50.4923 -90.0319 33.5364 -11.9488 4.36577 6.78153 8.62622 -91.6858 -5.21708 -0.491568 6.43324 -81.7815 -56.8928 91.5848 -20.0471 21.6223 0.227089 -20.3371 -4.58219 -66.7234 17.7406 -3.39301 -22.8337 8.03937 0.59036 -1.58572 -13.8323 0.656328 2.49064 
173.827 97.9506 171.196 -101.403 28.4276 -86.6231 174.883 -5.94062 80.3122 -9.56017 20.3819 3.35167 54.4845 1.0195 9.85212 38.3895 3.95858 1.84358 167.14 -0.199045 86.1501 -23.6492 2.58372 2.17902 70.7996 0.201025 9.40692 25.523 3.96579 3.31915 -1.46804 7.46881 -89.607 11.9516 -2.7337 1.07936 0.283021 -2.68355 1.19868 -22.2749 -2.93159 0.207217 -2.26226 -2.93162 0.207209 97.0332 -50.6332 -89.9064 33.5123 -11.806 4.44205 6.67898 8.51795 -92.0167 -5.32788 -0.533692 7.175 -81.9547 -56.3006 91.3017 -21.137 21.3604 0.525058 -20.1275 -4.67777 -66.805 17.98 -3.48799 -23.1341 11.2289 0.177163 -1.24687 -17.8234 0.203155 1.92871 
173.834 97.9856 171.094 -102.749 29.1999 -86.7557 174.851 -7.03826 79.4124 -9.44825 19.9095 3.04889 54.6367 1.11053 10.2448 38.3786 3.95021 1.74319 166.825 -0.587913 85.0436 -24.4956 1.36344 1.9239 70.9804 0.0719212 9.15573 25.7798 3.65777 3.17776 -1.41032 7.60394 -89.5001 11.6818 -2.57065 1.2652 0.0126551 -2.51247 1.37715 -22.542 -2.83198 0.433599 -2.52934 -2.83197 0.433592 97.0975 -50.6213 -89.8086 33.5544 -12.0758 4.24202 6.44278 8.71397 -91.9442 -4.58042 -0.439555 6.77052 -81.5664 -56.3158 91.8505 -20.9242 21.4335 0.243931 -20.4773 -4.66592 -66.824 17.4852 -3.30969 -22.6173 11.372 0.490268 -1.09401 -17.4298 0.533451 1.55082 
173.751 98.0184 170.99 -104.11 29.8278 -86.891 174.478 -8.11459 78.3183 -9.38535 19.0999 3.0276 54.7542 0.853916 10.2364 38.4241 3.97331 1.84611 166.221 -1.1413 83.7153 -25.2234 0.466706 1.82736 71.4838 -0.284239 9.54516 25.7074 3.7513 3.15965 -1.37272 7.72224 -89.3902 11.4458 -2.4464 1.46288 -0.223805 -2.37965 1.56916 -22.7756 -2.77289 0.65959 -2.76294 -2.77287 0.659594 96.943 -50.5563 -90.0532 33.8733 -12.2801 4.23439 5.95 8.75371 -91.9062 -5.05648 -0.509862 7.31952 -81.5624 -56.3517 91.8583 -20.9639 21.1272 0.507113 -20.6195 -4.23851 -66.6852 15.7838 -2.88567 -21.7119 12.0539 0.520129 -0.824008 -18.4301 0.523687 1.30556 
173.742 98.0466 170.939 -105.136 30.2771 -87.0663 174.257 -8.89556 77.4734 -9.30399 18.758 2.86219 54.8819 0.856383 10.5197 38.1498 3.85849 1.87869 165.736 -1.48675 82.6263 -25.7105 -0.222174 1.74131 71.8597 -0.694333 9.73796 25.6619 3.78477 3.37861 -1.33298 7.84253 -89.3039 11.2051 -2.32924 1.61447 -0.464863 -2.25594 1.71542 -23.014 -2.70672 0.83948 -3.00131 -2.70671 0.83948 96.9643 -50.8264 -89.9928 33.4656 -12.4098 3.81107 5.89704 8.87191 -91.6849 -4.52745 -0.440992 7.00482 -81.4045 -56.5059 92.0902 -20.3823 20.7267 -0.00678442 -20.2874 -3.20421 -65.821 12.0169 -2.05574 -19.9201 12.5258 0.441798 -0.82026 -18.9848 0.423072 1.43432 
173.685 98.0517 171.005 -105.869 30.4597 -87.3562 173.639 -9.30537 76.506 -9.27946 18.1938 2.88719 55.0549 1.12612 10.7994 37.8622 3.72882 1.635 165.334 -1.20385 81.5925 -26.4548 -4.05205 1.98538 70.2573 -0.628317 6.05552 27.4734 1.52326 3.19807 -1.3351 7.98228 -89.2314 10.9261 -2.30244 1.74673 -0.744073 -2.22336 1.84637 -23.2919 -2.72089 0.973736 -3.27929 -2.72091 0.973717 96.8825 -50.988 -90.102 33.118 -11.9369 3.38414 5.94171 8.88222 -91.1995 -3.29606 -0.284958 5.89574 -81.3728 -56.7303 92.148 -20.2929 21.9292 -0.128026 -23.8308 -4.11608 -65.9949 6.24082 -0.967907 -15.9811 13.5926 0.419715 -2.00864 -19.2456 0.449458 3.18317 
173.789 97.9143 171.136 -106.499 31.0242 -87.5557 173.186 -9.46644 75.6962 -9.21651 17.4496 2.67851 54.5523 0.959346 10.9947 38.4477 3.9816 1.80254 164.827 -0.800271 80.6425 -27.3508 -5.34919 2.17314 70.3631 -1.73953 5.36876 27.8628 1.05425 2.83088 -1.24909 8.19879 -89.1967 10.4914 -2.11958 1.78415 -1.17919 -2.03899 1.8757 -23.724 -2.55773 1.06448 -3.71131 -2.55772 1.06447 97.2007 -51.3068 -89.583 32.0774 -10.4702 2.76531 6.71165 8.57686 -90.8912 -1.255 -0.0915423 4.25666 -81.7091 -57.1663 91.7037 -19.9538 17.9697 -1.53797 -14.4139 0.490025 -62.412 -6.10003 0.321406 -17.4799 11.7012 0.868644 -3.38574 -14.8809 1.12725 4.86676 
174.517 97.9391 171.293 -107.687 32.9562 -86.2075 174.326 -10.035 76.4921 -9.02569 16.8737 2.19392 54.5224 0.484012 11.1335 38.2613 3.90135 1.7623 165.577 -0.954498 81.3654 -27.5711 -6.56167 1.67016 69.7602 -2.06655 5.13079 27.9494 0.952326 2.69377 -1.0611 8.54807 -89.2494 9.78868 -1.7751 1.63071 -1.88218 -1.70162 1.70725 -24.4232 -2.1831 1.02175 -4.41055 -2.1831 1.02176 96.6414 -52.047 -90.3599 30.1214 -7.42984 1.17911 8.99409 8.46487 -89.3032 5.21838 0.272123 0.716492 -81.9386 -57.5249 91.4069 -19.8347 16.993 -1.99751 -16.4774 -0.648526 -63.1703 -1.16386 -0.247141 -17.6045 11.6155 1.41674 -4.60271 -12.66 1.89413 6.38236 
